<svg width="1446" height="512" viewBox="0 0 1446 512" fill="none" xmlns="http://www.w3.org/2000/svg">
<g clip-path="url(#clip0_1_2)">
<mask id="mask0_1_2" style="mask-type:luminance" maskUnits="userSpaceOnUse" x="114" y="331" width="1169" height="181">
<path d="M1283 331H114V512H1283V331Z" fill="white"/>
</mask>
<g mask="url(#mask0_1_2)">
<path d="M611.194 458.278H608.241V461.294H611.194V458.278Z" fill="#2FBABB"/>
<path d="M578.711 458.278H575.759V461.294H578.711V458.278Z" fill="#2FBABB"/>
<path d="M608.241 455.197H602.335V458.213H608.241V455.197Z" fill="#2FBABB"/>
<path d="M584.617 455.197H578.711V458.213H584.617V455.197Z" fill="#2FBABB"/>
<path d="M602.335 452.18H584.617V455.197H602.335V452.18Z" fill="#2FBABB"/>
<path d="M587.763 466.814H581.472V469.959H587.763V466.814Z" fill="#009E9E"/>
<path d="M611.194 469.96H607.856V472.911H611.194V469.96Z" fill="#088484"/>
<path d="M605.738 471.949V466.622H602.336V469.96H596.429V466.942H593.476V463.99H587.57V466.942H590.524V469.96H592.578L593.091 472.912H592.578H587.763V469.96H578.711V466.044H575.759V472.912H578.711V475.864H584.617V478.816H590.524V487.674H596.429V478.816H602.336V475.864H608.241V471.949H605.738Z" fill="#088484"/>
<path d="M611.194 463.926H604.967V467.071H611.194V463.926Z" fill="#088484"/>
<path d="M581.664 463.669H578.39V466.942H581.664V463.669Z" fill="#088484"/>
<path d="M588.019 460.845H581.215V464.247H588.019V460.845Z" fill="#088484"/>
<path d="M593.798 457.828H590.266V461.358H593.798V457.828Z" fill="#088484"/>
<path d="M600.024 455.133H592.899V458.405H600.024V455.133Z" fill="#088484"/>
<path d="M602.335 458.085H599.062V461.358H602.335V458.085Z" fill="#088484"/>
<path d="M602.72 463.669H599.062V467.327H602.72V463.669Z" fill="#088484"/>
<path d="M608.241 469.96H605.288V472.911H608.241V469.96Z" fill="#009E9E"/>
<path d="M593.477 469.96H587.57V473.104H593.477V469.96Z" fill="#009E9E"/>
<path d="M611.194 466.942H605.288V469.895H611.194V466.942Z" fill="#2FBABB"/>
<path d="M590.523 466.942H587.57V469.895H590.523V466.942Z" fill="#2FBABB"/>
<path d="M581.664 466.942H578.711V469.895H581.664V466.942Z" fill="#2FBABB"/>
<path d="M599.446 460.91L593.477 461.038L593.348 467.007H596.429V470.088H602.528V467.007H599.446V460.91Z" fill="#009E9E"/>
<path d="M587.57 463.99H581.664V466.942H587.57V463.99Z" fill="#2FBABB"/>
<path d="M578.711 463.99H581.664V461.038H587.57V463.99H590.524V458.085H593.476V455.133H584.617V458.085H578.711V461.038H575.759V466.942H578.711V463.99Z" fill="#009E9E"/>
<path d="M602.335 461.038H599.382V463.989H602.335V461.038Z" fill="#2FBABB"/>
<path d="M593.476 461.038H590.523V463.989H593.476V461.038Z" fill="#2FBABB"/>
<path d="M608.241 458.085H602.335V466.942H605.289V463.99H611.194V461.038H608.241V458.085Z" fill="#009E9E"/>
<path d="M599.382 458.085H593.477V461.037H599.382V458.085Z" fill="#2FBABB"/>
<path d="M602.335 455.133H599.382V458.085H602.335V455.133Z" fill="#009E9E"/>
<path d="M904.372 461.038H901.101V464.375H904.372V461.038Z" fill="#B44BA1"/>
<path d="M915.927 460.91H909.447V464.183H915.927V460.91Z" fill="#B44BA1"/>
<path d="M931.017 470.088H927.553V473.617H931.017V470.088Z" fill="#B44BA1"/>
<path d="M912.463 466.558V469.895H915.606V476.57L918.885 476.056V473.04L921.836 473.232V469.895H919.142L918.821 467.071L912.463 466.558Z" fill="#B44BA1"/>
<path d="M930.76 479.074H927.809V473.04H924.851V470.024H921.9V476.057H918.949V482.09H921.9V488.124H924.851V482.09H927.809V488.124H930.76V479.074Z" fill="#F7FEFF"/>
<path d="M918.885 479.074H915.927V482.089H918.885V479.074Z" fill="#E1D1DE"/>
<path d="M912.976 479.074V470.024H910.025V467.071H907.074V464.054H904.116V467.071H901.165V473.104H907.074V488.124H910.025V482.09H912.976V488.124H915.927V479.074H912.976Z" fill="#F7FEFF"/>
<path d="M933.775 473.104L930.824 472.784V485.171H933.775V482.154H936.726V479.138H934.289L933.775 473.104Z" fill="#B44BA1"/>
<path d="M918.885 476.057H915.927V479.073H918.885V476.057Z" fill="#A545A4"/>
<path d="M915.927 476.057H912.976V479.073H915.927V476.057Z" fill="#E1D1DE"/>
<path d="M936.726 473.104H933.775V479.137H936.726V473.104Z" fill="#D779A5"/>
<path d="M930.76 473.104H927.809V479.137H930.76V473.104Z" fill="#E1D1DE"/>
<path d="M921.9 473.104H918.949V476.121H921.9V473.104Z" fill="#E1D1DE"/>
<path d="M915.927 469.895H912.976V476.056H915.927V469.895Z" fill="#A545A4"/>
<path d="M933.775 470.088H930.824V473.104H933.775V470.088Z" fill="#D779A5"/>
<path d="M927.809 470.088H924.851V473.104H927.809V470.088Z" fill="#E1D1DE"/>
<path d="M921.9 467.071H918.949V470.087H921.9V467.071Z" fill="#D779A5"/>
<path d="M912.976 467.071H910.025V470.087H912.976V467.071Z" fill="#E1D1DE"/>
<path d="M918.885 461.038H915.927V467.07H918.885V461.038Z" fill="#D779A5"/>
<path d="M915.927 464.054H912.976V467.071H915.927V464.054Z" fill="#F7FEFF"/>
<path d="M912.976 464.054H910.025V467.071H912.976V464.054Z" fill="#A545A4"/>
<path d="M910.025 464.054H907.074V467.071H910.025V464.054Z" fill="#E1D1DE"/>
<path d="M904.052 464.054H901.101V467.071H904.052V464.054Z" fill="#A545A4"/>
<path d="M910.025 461.038H904.116V464.054H910.025V461.038Z" fill="#A545A4"/>
<path d="M915.927 458.021H910.025V461.037H915.927V458.021Z" fill="#D779A5"/>
<path d="M910.025 458.021H907.074V461.037H910.025V458.021Z" fill="#E2B436"/>
<path d="M907.01 458.021H904.052V461.037H907.01V458.021Z" fill="#CF8934"/>
<path d="M907.01 455.004H904.052V458.021H907.01V455.004Z" fill="#E2B436"/>
<path d="M904.052 455.004H901.101V458.021H904.052V455.004Z" fill="#CF8934"/>
<path d="M904.052 451.988H901.101V455.004H904.052V451.988Z" fill="#E2B436"/>
<path d="M540.9 476.763H505.592V479.266H498.017V486.84H505.914H540.9V476.763Z" fill="#009E9E"/>
<path d="M498.017 481.833H503.025V484.336H505.592V481.833V479.266H498.017V481.833Z" fill="#29B8B8" fill-opacity="0.9624"/>
<path d="M540.899 476.763H532.041V474.259H524.466V476.763H513.167V474.259H505.592V476.763V479.266H510.6V481.834H513.167V479.266H515.671V481.834H523.246V479.266H530.821V481.705H533.324V484.336H535.829V481.705H538.396V479.266H540.899V476.763Z" fill="#29B8B8" fill-opacity="0.9624"/>
<path d="M840.754 476.763H876.131V479.266H883.637V486.84H875.746H840.754V476.763Z" fill="#009E9E"/>
<path d="M883.637 481.833H878.633V484.336H876.131V481.833V479.266H883.637V481.833Z" fill="#29B8B8" fill-opacity="0.9624"/>
<path d="M840.754 476.763H849.615V474.259H857.192V476.763H868.554V474.259H876.131V476.763V479.266H871.056V481.834H868.554V479.266H865.988V481.834H858.411V479.266H850.833V481.705H848.331V484.336H845.83V481.705H843.328V479.266H840.754V476.763Z" fill="#29B8B8" fill-opacity="0.9624"/>
<path d="M190.136 477.79V480.036H183.331V486.84H190.136H190.714H221.848V477.79H190.136Z" fill="#009E9E"/>
<path d="M213.952 477.79V475.543H207.148V477.79H196.941V475.543H190.136V477.79V480.036H183.331V482.347H187.825V484.593H190.136V482.347V480.036H194.63V482.347H196.941V480.036H199.187V482.347H205.992V480.036H212.797V482.347H215.044V484.593H217.355V482.347H219.601V480.036H221.848V477.79H213.952Z" fill="#29B8B8" fill-opacity="0.9624"/>
<path d="M372.579 482.475V480.229H365.903V475.8H335.025V480.229H328.413V486.84H335.025H365.903H371.424H372.579H376.944V482.475H372.579Z" fill="#009E9E"/>
<path d="M372.579 482.475V480.229H365.903V482.475V483.245V484.657H368.15H376.944V482.475H372.579Z" fill="#29B8B8" fill-opacity="0.9624"/>
<path d="M360.961 473.618H357.109V471.435H350.497V473.618H339.455V475.8H335.025V478.047H339.455V480.229H341.637V478.047H343.82V480.229H350.497V478.047H357.109V480.229H363.721V478.047H365.903V475.8H360.961V473.618Z" fill="#29B8B8" fill-opacity="0.9624"/>
<path d="M328.413 480.229V482.475H332.778V484.657H335.025V482.475V481.962V480.229H328.413Z" fill="#29B8B8" fill-opacity="0.9624"/>
<path d="M985.903 482.475V480.229H992.518V475.8H1023.46V480.229H1030.07V486.84H1023.46H992.518H986.993H985.903H981.476V482.475H985.903Z" fill="#009E9E"/>
<path d="M985.903 482.475V480.229H992.518V482.475V483.245V484.657H990.329H981.476V482.475H985.903Z" fill="#29B8B8" fill-opacity="0.9624"/>
<path d="M997.521 473.618H1001.37V471.435H1007.99V473.618H1019.03V475.8H1023.46V478.047H1019.03V480.229H1016.85V478.047H1014.6V480.229H1007.99V478.047H1001.37V480.229H994.763V478.047H992.518V475.8H997.521V473.618Z" fill="#29B8B8" fill-opacity="0.9624"/>
<path d="M1030.07 480.229V482.475H1025.64V484.657H1023.46V482.475V481.962V480.229H1030.07Z" fill="#29B8B8" fill-opacity="0.9624"/>
<path d="M426.311 484.658V480.229H419.699H413.087V482.475H408.657V486.84H413.087H413.536H419.699H425.477H426.311H431.255V484.658H426.311Z" fill="#009E9E"/>
<path d="M419.699 480.229V478.046H417.452H415.27V480.229H413.087V482.475H419.699H424.064V484.658H426.311V482.475V482.026V480.229H419.699Z" fill="#29B8B8" fill-opacity="0.9624"/>
<path d="M410.84 482.475H408.657V484.657H410.84H413.023V482.475H410.84Z" fill="#29B8B8" fill-opacity="0.9624"/>
<path d="M804.101 484.658V480.229H810.714H817.326V482.475H821.755V486.84H817.326H816.876H810.714H804.872H804.101H799.094V484.658H804.101Z" fill="#009E9E"/>
<path d="M810.714 480.229V478.046H812.897H815.143V480.229H817.326V482.475H810.714H806.284V484.658H804.101V482.475V482.026V480.229H810.714Z" fill="#29B8B8" fill-opacity="0.9624"/>
<path d="M819.509 482.475H821.755V484.657H819.509H817.326V482.475H819.509Z" fill="#29B8B8" fill-opacity="0.9624"/>
<path d="M1120.84 484.658V480.229H1114.23H1107.61V482.475H1103.19V486.84H1107.61H1108.07H1114.23H1120.07H1120.84H1125.85V484.658H1120.84Z" fill="#009E9E"/>
<path d="M1114.23 480.229V478.046H1112.05H1109.8V480.229H1107.62V482.475H1114.23H1118.66V484.658H1120.84V482.475V482.026V480.229H1114.23Z" fill="#29B8B8" fill-opacity="0.9624"/>
<path d="M1105.43 482.475H1103.19V484.657H1105.43H1107.61V482.475H1105.43Z" fill="#29B8B8" fill-opacity="0.9624"/>
<path d="M697.537 486.84H94.4204V513.155H697.537V486.84Z" fill="#2FBABB"/>
<path d="M1296.67 486.84H697.216V513.155H1296.67V486.84Z" fill="#2FBABB"/>
<path d="M1296.67 511.808V500.318H697.537H697.216H94.4204V513.155L1182.92 513.797L1295.97 511.743L1296.67 511.808Z" fill="#088484"/>
<path d="M1286.4 499.356V496.146H1267.4V499.356H1257.9V496.146H1248.4V499.356H1245.19V496.146H1242.04V499.356H1235.69V496.146H1229.4V499.356H1216.69V496.146H1210.39V499.356H1200.89V496.146H1197.68V499.356H1191.33V499.292H1188.18V496.146H1185.04V499.292H1178.68V496.146H1172.39V499.292H1162.83V496.146H1143.82V499.292H1134.32V496.146H1124.82V499.292H1121.68V496.146H1118.53V499.292H1112.18V496.146H1105.82V499.292H1093.17V496.146H1086.82V499.292H1077.32V496.146H1074.17V499.292H1067.82H1064.67V496.146H1061.46V499.292H1055.17V496.146H1048.82V499.292H1039.31V496.146H1020.31V499.292H1010.81V496.146H1001.31V499.292H998.163V496.146H994.956V499.292H988.661V496.146H982.31V499.292H969.601V496.146H963.307V499.292H953.805V496.146H950.598V499.292H945.523H944.304H941.096V496.146H937.953V499.292H931.594V496.146H925.3V499.292H915.799V496.146H896.802V499.292H887.301V496.146H877.799V499.292H874.591V496.146H871.441V499.292H865.09V496.146H858.796V499.292H846.086V496.146H839.728V499.292H830.226V496.146H827.083V499.292H820.728H817.583V496.146H814.437V499.292H808.082V496.146H801.726V499.292H792.225V496.146H773.224V499.292H763.723V496.146H754.222V499.292H751.076V496.146H747.931V499.292H741.576V496.146H735.22V499.292H722.574V496.146H716.218V499.292H706.717V496.146H703.572V499.292H697.216V499.356H692.659V496.146H686.367V499.356H676.866V496.146H657.8V499.356H648.299V496.146H638.798V499.356H635.653V496.146H632.507V499.356H626.152V496.146H619.796V499.356H607.15V496.146H600.794V499.356H591.293V496.146H588.148V499.356H581.792V499.292H578.647V496.146H575.501V499.292H569.146V496.146H562.79V499.292H553.29V496.146H534.288V499.292H524.787V496.146H515.286V499.292H512.141V496.146H508.931V499.292H502.64V496.146H496.284V499.292H483.638V496.146H477.282V499.292H467.781V496.146H464.636V499.292H458.28H455.135V496.146H451.925V499.292H445.57V496.146H439.278V499.292H429.778V496.146H410.776V499.292H401.275V496.146H391.774V499.292H388.565V496.146H385.419V499.292H379.064V496.146H372.772V499.292H360.062V496.146H353.77V499.292H344.205V496.146H341.06V499.292H334.704H331.559V496.146H328.413V499.292H322.058V496.146H315.702V499.292H306.201V496.146H287.199V499.292H277.698V496.146H268.197V499.292H265.052V496.146H261.906V499.292H255.551V496.146H249.196V499.292H236.549V496.146H230.194V499.292H220.693V496.146H217.548V499.292H210.614H208.047V496.146H204.837V499.292H198.546V496.146H192.19V499.292H182.689V496.146H163.687V499.292H154.186V496.146H144.685V499.292H141.54V496.146H138.33V499.292H132.039V496.146H125.684V499.292H112.973V496.146H106.682V499.292H94.4204V502.436H100.326V505.518H103.472V502.436H109.827V505.518H112.973V508.662H116.183V505.518H119.328V508.662H125.684V505.518H128.829V502.436H132.039V505.518H135.185V508.662H138.33V505.518V502.436H141.54V505.518H151.041V502.436H154.186V505.518H157.332V508.662H163.687V505.518H173.188V502.436H182.689V505.518H189.045V502.436H195.336V505.518H201.691V502.436H208.047V505.518H211.192V502.436H214.338V505.518H220.693V502.436H223.839V505.518H227.049V502.436H233.339V505.518H236.549V508.662H239.695V505.518H242.904V508.662H249.196V505.518H252.405V502.436H255.551V505.518H258.696V508.662H261.906V505.518V502.436H265.052V505.518H274.553V502.436H277.698V505.518H280.908V508.662H287.199V505.518H296.7V502.436H306.201V505.518H312.557V502.436H318.912V505.518H325.203V502.436H331.559V505.518H334.704V502.436H337.914V505.261H344.205V502.436H347.415V505.261H350.561V502.436H356.916V505.261H360.062V508.662H363.271V505.261H366.417V508.662H372.772V505.261H375.918V502.436H379.064V505.261H382.273V508.662H385.419V505.261V502.436H388.565V505.261H398.065V502.436H401.275V505.261H404.42V508.662H410.776V505.261H420.277V502.436H429.778V505.518H436.069V502.436H442.424V505.518H448.779V502.436H455.071V505.518H458.28V502.436H461.426V505.518H467.781V502.436H470.927V505.518H474.137V502.436H480.428V505.325H483.638V508.662H486.783V505.325H489.929V508.662H496.284V505.325H499.43V502.436H502.64V505.325H505.785V508.662H508.931V505.325V502.436H512.141V505.325H521.642V502.436H524.787V505.325H527.933V508.662H534.288V505.325H543.789V502.436H553.29V505.518H559.646V502.436H566V505.518H572.291V502.436H578.647V505.518H581.792V502.5H585.002V505.518H591.293V502.5H594.503V505.518H597.649V502.5H604.004V505.518H607.15V508.662H610.295V505.518H613.505V508.662H619.796V505.518H623.006V502.5H626.152V505.518H629.297V508.662H632.507V505.518V502.5H635.653V505.518H645.154V502.5H648.299V505.518H651.509V508.662H657.8V505.518H667.301V502.5H676.866V505.518H683.158V502.5H689.513V505.518H695.868V502.5H697.858V502.436H700.362V505.518H706.717V502.436H709.863V505.518H713.073V502.436H719.364V505.518H722.574V508.662H725.719V505.518H728.865V508.662H735.22V505.518H738.366V502.436H741.576V505.518H744.721V508.662H747.867V505.518V502.436H751.076V505.518H760.577V502.436H763.723V505.518H766.933V508.662H773.224V505.518H782.724V502.436H792.225V505.518H798.581V502.436H804.936V505.518H811.227V502.436H817.583V505.518H820.728V502.436H823.938V505.518H830.226V502.436H833.441V505.518H836.584V502.436H842.943V505.518H846.086V508.662H849.23V505.518H852.444V508.662H858.731V505.518H861.939V502.436H865.09V505.518H868.233V508.662H871.441V505.518V502.436H874.591V505.518H884.086V502.436H887.301V505.518H890.444V508.662H896.802V505.518H906.304V502.436H915.799V505.518H922.093V502.436H928.451V505.518H934.802V502.436H941.096V505.518H944.304V502.436H947.447V505.325H953.805V502.436H956.949V505.325H960.099V502.436H966.45V505.325H969.601V508.662H972.809V505.325H975.952V508.662H982.31V505.325H985.454V502.436H988.661V505.325H991.812V508.662H994.956V505.325V502.436H998.163V505.325H1007.66V502.436H1010.81V505.325H1013.96V508.662H1020.31V505.325H1029.81V502.436H1039.31V505.325H1045.67V502.436H1051.96V505.325H1058.32V502.436H1064.67V505.325H1067.82V502.436H1071.03V505.325H1077.32V502.436H1080.53V505.325H1083.67V502.436H1089.97V505.325H1093.17V508.662H1096.32V505.325H1099.53V508.662H1105.82V505.325H1109.03V502.436H1112.18V505.325H1115.32V508.662H1118.53V505.325V502.436H1121.68V505.325H1131.18V502.436H1134.32V505.325H1137.53V508.662H1143.82V505.325H1153.33V502.436H1162.83V505.518H1169.18V502.436H1175.54V505.518H1181.82V502.436H1191.07H1188.18V505.518H1191.39V502.5H1194.54V505.518H1200.89V502.5H1204.04V505.518H1207.19V502.5H1213.54V505.518H1216.69V508.662H1219.9V505.518H1223.04V508.662H1229.4V505.518H1232.54V502.5H1235.69V505.518H1238.9V508.662H1242.04V505.518V502.5H1245.19V505.518H1254.69V502.5H1257.9V505.518H1261.05V508.662H1267.4V505.518H1276.9V502.5H1296.99V499.356H1286.4Z" fill="#009E9E"/>
<path d="M749.471 388.317V423.425L741.831 425.415L739.264 428.304L734.835 425.415H729.057L725.654 428.304L722.252 425.415V397.88H729.057L730.854 396.147L730.533 389.344L727.26 385.942H723.279V375.736H687.009V385.3L681.617 387.482V397.88H686.559V426.827H660.881V388.317H633.663V488.124H776.754V422.655V388.317H749.471Z" fill="#DFF9FF"/>
<path d="M704.085 341.655H718.786V338.253V334.851V331.449H704.085V333.182H703.507V339.922H704.085V341.655Z" fill="#DFF9FF"/>
<path d="M773.031 365.467V362.065V358.663H759.935V362.065H761.668V365.467H759.935V368.869H773.031V365.467Z" fill="#DFF9FF"/>
<path d="M657.222 365.467V362.065V360.461V358.663H644.126V362.065H645.859V365.467H644.126V368.869H657.222V365.467Z" fill="#DFF9FF"/>
<path d="M660.882 409.883V409.626H638.349V413.028H650.674V487.61H660.882V409.883Z" fill="#AEF1F1"/>
<path d="M776.755 409.626H754.221V413.028H766.483V488.124H776.755V413.028V409.626Z" fill="#AEF1F1"/>
<path d="M722.188 401.218H708.578V426.827H722.188V401.218Z" fill="#AEF1F1"/>
<path d="M776.69 389.344H766.483V396.147H776.69V389.344Z" fill="#AEF1F1"/>
<path d="M660.881 389.344H650.546V396.147H660.881V389.344Z" fill="#AEF1F1"/>
<path d="M688.357 482.668V458.278H684.954V482.668H660.882V487.61H688.357V482.668Z" fill="#AEF1F1"/>
<path d="M715.319 461.808H711.917V487.61H715.319V461.808Z" fill="#2FBABB"/>
<path d="M698.436 461.808H695.034V487.61H698.436V461.808Z" fill="#2FBABB"/>
<path d="M711.917 458.278H698.372V461.679H711.917V458.278Z" fill="#2FBABB"/>
<path d="M711.724 404.363H698.178V407.764H711.724V404.363Z" fill="#2FBABB"/>
<path d="M711.724 407.765V414.889H698.243V407.765H694.84V414.889V418.29H698.243H711.724H715.126V407.765H711.724Z" fill="#2FBABB"/>
<path d="M732.139 371.115H728.736V374.517H732.139V371.115Z" fill="#009E9E"/>
<path d="M725.333 364.312H721.931V367.713H725.333V364.312Z" fill="#009E9E"/>
<path d="M718.529 357.508H715.127V360.909H718.529V357.508Z" fill="#009E9E"/>
<path d="M728.736 367.714H725.333V371.115H728.736V367.714Z" fill="#009E9E"/>
<path d="M721.931 360.91H718.529V364.311H721.931V360.91Z" fill="#009E9E"/>
<path d="M715.126 354.106H711.724V357.508H715.126V354.106Z" fill="#009E9E"/>
<path d="M711.724 350.705H708.322V354.106H711.724V350.705Z" fill="#009E9E"/>
<path d="M749.471 426.827V423.425H740.419V426.827H737.017V423.425H727.324V426.827H723.921V423.425H713.65V426.827H710.055V423.425H699.527V426.827H696.125V423.425H686.431V426.827H683.028V423.425H673.335V426.827H669.933V423.425H660.882V427.79V438.701H749.535V426.827H749.471Z" fill="#66C8C9"/>
<path d="M699.527 425.929H696.124V430.164H699.527V425.929Z" fill="#DFF9FF"/>
<path d="M701.774 385.942H698.372V394.543H701.774V385.942Z" fill="#DFF9FF"/>
<path d="M713.65 425.929H710.055V430.164H713.65V425.929Z" fill="#AEF1F1"/>
<path d="M727.324 426.827H723.921V430.229H727.324V426.827Z" fill="#5EDDDE"/>
<path d="M723.279 377.919H708.578V387.482H708.643V394.478H712.045V387.482H718.336V394.478H721.739V387.482H723.279V377.919Z" fill="#AEF1F1"/>
<path d="M740.419 426.827H737.017V430.229H740.419V426.827Z" fill="#5EDDDE"/>
<path d="M728.8 387.482H728.736V384.08H721.738V394.478H718.336V384.08H712.045V394.478H708.643V384.08H701.646V394.478H698.371V384.08H692.081V387.482H688.678V384.08H681.617V387.482H681.488H678.214V401.218H681.488H681.617H728.736H728.8H732.138V387.482H728.8Z" fill="#66C8C9"/>
<path d="M686.431 426.827H683.029V430.229H686.431V426.827Z" fill="#5EDDDE"/>
<path d="M673.335 426.827H669.933V430.229H673.335V426.827Z" fill="#5EDDDE"/>
<path d="M692.08 385.942H688.678V394.543H692.08V385.942Z" fill="#DFF9FF"/>
<path d="M730.469 374.517V372.784L726.874 369.446L723.6 365.467L719.877 362.514L717.116 359.177L713.136 355.775L710.055 351.86L707.487 349.87L703.828 349.1L701.838 350.705H698.693V353.978L698.564 354.106H695.226V357.508H691.823V360.717L691.631 360.91H688.421V364.312H685.019V367.713H685.147L685.019 367.842V367.713H681.617V371.115H678.214V374.517V377.919H732.138V374.517H730.469Z" fill="#009E9E"/>
<path d="M705.176 331.449H701.774V347.303H705.176V331.449Z" fill="#2FBABB"/>
<path d="M708.578 347.303H701.774V350.704H708.578V347.303Z" fill="#009E9E"/>
<path d="M766.483 419.959H759.678V423.361H766.483V419.959Z" fill="#2FBABB"/>
<path d="M769.885 433.631V423.425H766.483V433.631H759.678V423.425H756.276V433.631V437.032H759.678H766.483H769.885V433.631Z" fill="#2FBABB"/>
<path d="M763.08 358.663H759.678V372.271H763.08V358.663Z" fill="#2FBABB"/>
<path d="M776.754 382.54H773.352V389.344H776.754V382.54Z" fill="#009E9E"/>
<path d="M780.156 399.613H776.754V396.147H749.471V399.613H746.068V409.882H749.471V409.947H776.754V409.69H780.156V399.613Z" fill="#66C8C9"/>
<path d="M769.885 394.478H766.483V402.95H769.885V394.478Z" fill="#AEF1F1"/>
<path d="M759.678 395.505H756.276V402.951H759.678V395.505Z" fill="#DFF9FF"/>
<path d="M766.483 372.335H759.678V375.736H766.483V372.335Z" fill="#009E9E"/>
<path d="M773.352 379.138H769.949V382.54H773.352V379.138Z" fill="#009E9E"/>
<path d="M769.885 375.736H766.483V379.138H769.885V375.736Z" fill="#009E9E"/>
<path d="M774.893 385.942V383.952L771.297 380.422L767.831 377.084L765.07 374.389L761.86 373.747L759.614 375.672H756.212V379.138H752.809V382.476L752.745 382.54H749.407V385.942H746.005V389.344H780.093V385.942H774.893Z" fill="#009E9E"/>
<path d="M766.483 450.64H759.678V454.041H766.483V450.64Z" fill="#2FBABB"/>
<path d="M769.885 464.247V454.042H766.483V464.247H759.678V454.042H756.276V464.247V467.649H769.885V464.247Z" fill="#2FBABB"/>
<path d="M647.272 358.663H643.869V372.271H647.272V358.663Z" fill="#2FBABB"/>
<path d="M650.674 419.959H643.869V423.361H650.674V419.959Z" fill="#2FBABB"/>
<path d="M654.077 433.631V423.425H650.674V433.631H643.869V423.425H640.467V433.631V437.032H643.869H650.674H654.077V433.631Z" fill="#2FBABB"/>
<path d="M664.284 399.613H660.881V396.147H633.598V399.613H630.26V409.882H633.662H660.881V409.69H664.284V399.613Z" fill="#66C8C9"/>
<path d="M654.076 395.505H650.674V402.886H654.076V395.505Z" fill="#AEF1F1"/>
<path d="M643.869 395.505H640.467V402.886H643.869V395.505Z" fill="#DFF9FF"/>
<path d="M658.956 385.942V383.952L655.36 380.422L651.958 377.02L649.197 374.389L645.988 373.747L643.741 375.736H640.467V379.074L640.403 379.138H637.065V382.412L636.936 382.54H633.662V385.942H630.26V389.344H664.284V385.942H658.956Z" fill="#009E9E"/>
<path d="M650.674 450.64H643.869V454.041H650.674V450.64Z" fill="#2FBABB"/>
<path d="M654.077 464.247V454.042H650.674V464.247H643.869V454.042H640.467V464.247V467.649H654.077V464.247Z" fill="#2FBABB"/>
<path d="M691.76 458.278H688.357V487.61H691.76V458.278Z" fill="#2FBABB"/>
<path d="M721.995 458.278H718.593V487.61H721.995V458.278Z" fill="#2FBABB"/>
<path d="M715.191 451.41H695.226V454.811H715.191V451.41Z" fill="#2FBABB"/>
<path d="M695.226 454.876H691.823V458.277H695.226V454.876Z" fill="#2FBABB"/>
<path d="M718.593 454.876H715.191V458.277H718.593V454.876Z" fill="#2FBABB"/>
<path d="M712.944 331.449H708.643V341.655H712.944V331.449Z" fill="#AEF1F1"/>
<path d="M711.981 461.551H698.372V487.61H711.981V461.551Z" fill="#AEF1F1"/>
<path d="M766.483 454.042H759.678V464.247H766.483V454.042Z" fill="#AEF1F1"/>
<path d="M650.546 454.042H643.741V464.247H650.546V454.042Z" fill="#AEF1F1"/>
<path d="M766.483 423.49H759.678V433.695H766.483V423.49Z" fill="#AEF1F1"/>
<path d="M650.546 423.49H643.741V433.695H650.546V423.49Z" fill="#AEF1F1"/>
<path d="M711.724 407.765H698.243V414.889H711.724V407.765Z" fill="#AEF1F1"/>
<path d="M691.76 454.876H688.357V458.277H691.76V454.876Z" fill="#AEF1F1"/>
<path d="M695.226 451.41H691.823V454.811H695.226V451.41Z" fill="#AEF1F1"/>
<path d="M722.252 401.218H692.081V404.619H722.252V401.218Z" fill="#AEF1F1"/>
<path d="M749.471 438.701H737.017H668.392V442.103H737.017V482.668H721.995V487.61H737.017H749.471V438.701Z" fill="#AEF1F1"/>
<path d="M643.869 375.736H647.272V379.138H650.674V375.736V372.335H643.869V375.736Z" fill="#088484"/>
<path d="M654.076 375.736H650.674V379.138V382.54H653.434H654.076V385.942H657.479V382.54V381.962V379.138H654.076V375.736Z" fill="#088484"/>
<path d="M660.881 385.942V382.54H657.479V389.344H660.881H664.284V385.942H660.881Z" fill="#088484"/>
<path d="M715.126 354.106H711.724V350.705H708.578V347.303H701.774V350.705H705.176V354.106H708.322V357.508H711.724V360.91H715.126V364.312H718.529V360.91V359.947V357.508H715.126V354.106Z" fill="#088484"/>
<path d="M730.469 371.115H728.736V367.713H725.334V364.312H724.37H721.931V360.91H718.529V364.312V367.713H720.198V367.778H721.931V371.115H725.334V374.517H728.736V374.453V377.919H732.138V371.115H730.469Z" fill="#088484"/>
<path d="M766.483 372.335H759.678V375.736H766.483V372.335Z" fill="#088484"/>
<path d="M776.754 385.942V382.54H773.352H773.48V379.138H770.078V375.736H766.675H763.08V379.138H766.611V380.807H766.675V382.54H770.078V384.08V385.942H773.48V389.344H780.156V385.942H776.754Z" fill="#088484"/>
</g>
</g>
<path d="M252.492 148.945H265.617L295.148 210H282.141L277.258 199.727H241.594L236.867 210H223.82L252.492 148.945ZM272.375 189.531L259.172 161.797L246.32 189.531H272.375ZM304.641 148.945H335.695C340.383 148.945 344.445 149.44 347.883 150.43C351.32 151.393 354.172 152.799 356.438 154.648C358.703 156.497 360.383 158.75 361.477 161.406C362.596 164.062 363.156 167.07 363.156 170.43C363.156 172.695 362.883 174.857 362.336 176.914C361.789 178.945 360.943 180.82 359.797 182.539C358.677 184.258 357.258 185.794 355.539 187.148C353.82 188.477 351.802 189.583 349.484 190.469L362.766 210H347.609L336.125 192.656H335.773L317.023 192.617V210H304.641V148.945ZM336.008 181.914C338.352 181.914 340.396 181.641 342.141 181.094C343.911 180.547 345.383 179.779 346.555 178.789C347.753 177.799 348.638 176.602 349.211 175.195C349.81 173.763 350.109 172.174 350.109 170.43C350.109 167.018 348.938 164.388 346.594 162.539C344.25 160.664 340.721 159.727 336.008 159.727H317.023V181.914H336.008ZM377.844 148.945H410.461C414.445 148.945 417.909 149.375 420.852 150.234C423.82 151.068 426.281 152.227 428.234 153.711C430.188 155.195 431.633 156.966 432.57 159.023C433.534 161.055 434.016 163.255 434.016 165.625C434.016 169.505 432.792 172.904 430.344 175.82C433.156 177.487 435.253 179.648 436.633 182.305C438.013 184.961 438.703 187.982 438.703 191.367C438.703 194.206 438.221 196.771 437.258 199.062C436.32 201.354 434.875 203.32 432.922 204.961C430.995 206.576 428.547 207.826 425.578 208.711C422.635 209.57 419.159 210 415.148 210H377.844V148.945ZM415.227 172.383C416.294 172.383 417.336 172.422 418.352 172.5C420.096 170.833 420.969 168.932 420.969 166.797C420.969 164.583 420.096 162.878 418.352 161.68C416.633 160.456 414.107 159.844 410.773 159.844H390.227V172.383H415.227ZM415.461 199.219C418.794 199.219 421.32 198.503 423.039 197.07C424.784 195.638 425.656 193.62 425.656 191.016C425.656 188.411 424.784 186.38 423.039 184.922C421.32 183.464 418.794 182.734 415.461 182.734H390.227V199.219H415.461ZM449.719 148.945H462.18V210H449.719V148.945ZM496.398 159.805H473.859V148.945H531.32V159.805H508.781V210H496.398V159.805ZM544.562 148.945H575.617C580.305 148.945 584.367 149.44 587.805 150.43C591.242 151.393 594.094 152.799 596.359 154.648C598.625 156.497 600.305 158.75 601.398 161.406C602.518 164.062 603.078 167.07 603.078 170.43C603.078 172.695 602.805 174.857 602.258 176.914C601.711 178.945 600.865 180.82 599.719 182.539C598.599 184.258 597.18 185.794 595.461 187.148C593.742 188.477 591.724 189.583 589.406 190.469L602.688 210H587.531L576.047 192.656H575.695L556.945 192.617V210H544.562V148.945ZM575.93 181.914C578.273 181.914 580.318 181.641 582.062 181.094C583.833 180.547 585.305 179.779 586.477 178.789C587.674 177.799 588.56 176.602 589.133 175.195C589.732 173.763 590.031 172.174 590.031 170.43C590.031 167.018 588.859 164.388 586.516 162.539C584.172 160.664 580.643 159.727 575.93 159.727H556.945V181.914H575.93ZM615.461 148.945H627.844V182.578C627.844 185.339 628.221 187.799 628.977 189.961C629.732 192.096 630.852 193.906 632.336 195.391C633.846 196.875 635.708 198.008 637.922 198.789C640.135 199.544 642.714 199.922 645.656 199.922C648.573 199.922 651.138 199.544 653.352 198.789C655.591 198.008 657.453 196.875 658.938 195.391C660.448 193.906 661.581 192.096 662.336 189.961C663.091 187.799 663.469 185.339 663.469 182.578V148.945H675.852V184.062C675.852 188.073 675.174 191.719 673.82 195C672.466 198.281 670.5 201.094 667.922 203.438C665.344 205.781 662.18 207.591 658.43 208.867C654.706 210.143 650.448 210.781 645.656 210.781C640.865 210.781 636.594 210.143 632.844 208.867C629.12 207.591 625.969 205.781 623.391 203.438C620.812 201.094 618.846 198.281 617.492 195C616.138 191.719 615.461 188.073 615.461 184.062V148.945ZM691.008 148.945H703.391L725.578 171.211L747.766 148.945H760.148V210H747.766V166.094L725.578 187.461L703.391 166.094V210H691.008V148.945ZM806.945 191.836C809.159 193.086 811.398 194.219 813.664 195.234C815.956 196.224 818.326 197.07 820.773 197.773C823.221 198.451 825.786 198.971 828.469 199.336C831.177 199.701 834.055 199.883 837.102 199.883C840.773 199.883 843.898 199.648 846.477 199.18C849.055 198.685 851.151 198.021 852.766 197.188C854.406 196.328 855.591 195.312 856.32 194.141C857.076 192.969 857.453 191.693 857.453 190.312C857.453 188.099 856.529 186.354 854.68 185.078C852.831 183.776 849.979 183.125 846.125 183.125C844.432 183.125 842.648 183.242 840.773 183.477C838.898 183.685 836.997 183.919 835.07 184.18C833.169 184.44 831.281 184.688 829.406 184.922C827.557 185.13 825.812 185.234 824.172 185.234C821.438 185.234 818.807 184.883 816.281 184.18C813.781 183.477 811.555 182.422 809.602 181.016C807.674 179.609 806.138 177.852 804.992 175.742C803.846 173.633 803.273 171.172 803.273 168.359C803.273 166.693 803.495 165.039 803.938 163.398C804.406 161.758 805.135 160.195 806.125 158.711C807.141 157.201 808.443 155.807 810.031 154.531C811.62 153.229 813.534 152.109 815.773 151.172C818.039 150.234 820.643 149.505 823.586 148.984C826.555 148.438 829.927 148.164 833.703 148.164C836.438 148.164 839.185 148.32 841.945 148.633C844.706 148.919 847.388 149.336 849.992 149.883C852.622 150.43 855.148 151.094 857.57 151.875C859.992 152.63 862.245 153.477 864.328 154.414L858.898 164.414C857.18 163.659 855.331 162.969 853.352 162.344C851.372 161.693 849.302 161.133 847.141 160.664C844.979 160.195 842.74 159.831 840.422 159.57C838.13 159.284 835.786 159.141 833.391 159.141C829.979 159.141 827.167 159.388 824.953 159.883C822.766 160.378 821.021 161.016 819.719 161.797C818.417 162.552 817.505 163.411 816.984 164.375C816.49 165.312 816.242 166.25 816.242 167.188C816.242 169.01 817.062 170.508 818.703 171.68C820.344 172.826 822.844 173.398 826.203 173.398C827.557 173.398 829.107 173.307 830.852 173.125C832.622 172.917 834.471 172.695 836.398 172.461C838.352 172.227 840.331 172.018 842.336 171.836C844.367 171.628 846.333 171.523 848.234 171.523C851.828 171.523 855.005 171.927 857.766 172.734C860.552 173.542 862.883 174.701 864.758 176.211C866.633 177.695 868.052 179.505 869.016 181.641C869.979 183.75 870.461 186.12 870.461 188.75C870.461 192.266 869.641 195.404 868 198.164C866.385 200.898 864.068 203.216 861.047 205.117C858.052 206.992 854.432 208.424 850.188 209.414C845.943 210.378 841.216 210.859 836.008 210.859C832.57 210.859 829.211 210.638 825.93 210.195C822.648 209.779 819.497 209.18 816.477 208.398C813.482 207.591 810.617 206.641 807.883 205.547C805.174 204.427 802.661 203.203 800.344 201.875L806.945 191.836ZM902.492 159.805H879.953V148.945H937.414V159.805H914.875V210H902.492V159.805ZM969.367 194.883L942.688 148.945H956.711L975.5 183.672L994.055 148.945H1008.08L981.75 194.805V210H969.367V194.883ZM1017.45 148.945H1029.84V199.141H1065.34V210H1017.45V148.945ZM1075.07 148.945H1087.45V182.578C1087.45 185.339 1087.83 187.799 1088.59 189.961C1089.34 192.096 1090.46 193.906 1091.95 195.391C1093.46 196.875 1095.32 198.008 1097.53 198.789C1099.74 199.544 1102.32 199.922 1105.27 199.922C1108.18 199.922 1110.75 199.544 1112.96 198.789C1115.2 198.008 1117.06 196.875 1118.55 195.391C1120.06 193.906 1121.19 192.096 1121.95 189.961C1122.7 187.799 1123.08 185.339 1123.08 182.578V148.945H1135.46V184.062C1135.46 188.073 1134.78 191.719 1133.43 195C1132.08 198.281 1130.11 201.094 1127.53 203.438C1124.95 205.781 1121.79 207.591 1118.04 208.867C1114.32 210.143 1110.06 210.781 1105.27 210.781C1100.47 210.781 1096.2 210.143 1092.45 208.867C1088.73 207.591 1085.58 205.781 1083 203.438C1080.42 201.094 1078.46 198.281 1077.1 195C1075.75 191.719 1075.07 188.073 1075.07 184.062V148.945ZM1153.43 191.836C1155.64 193.086 1157.88 194.219 1160.15 195.234C1162.44 196.224 1164.81 197.07 1167.26 197.773C1169.71 198.451 1172.27 198.971 1174.95 199.336C1177.66 199.701 1180.54 199.883 1183.59 199.883C1187.26 199.883 1190.38 199.648 1192.96 199.18C1195.54 198.685 1197.64 198.021 1199.25 197.188C1200.89 196.328 1202.08 195.312 1202.8 194.141C1203.56 192.969 1203.94 191.693 1203.94 190.312C1203.94 188.099 1203.01 186.354 1201.16 185.078C1199.32 183.776 1196.46 183.125 1192.61 183.125C1190.92 183.125 1189.13 183.242 1187.26 183.477C1185.38 183.685 1183.48 183.919 1181.55 184.18C1179.65 184.44 1177.77 184.688 1175.89 184.922C1174.04 185.13 1172.3 185.234 1170.66 185.234C1167.92 185.234 1165.29 184.883 1162.77 184.18C1160.27 183.477 1158.04 182.422 1156.09 181.016C1154.16 179.609 1152.62 177.852 1151.48 175.742C1150.33 173.633 1149.76 171.172 1149.76 168.359C1149.76 166.693 1149.98 165.039 1150.42 163.398C1150.89 161.758 1151.62 160.195 1152.61 158.711C1153.62 157.201 1154.93 155.807 1156.52 154.531C1158.1 153.229 1160.02 152.109 1162.26 151.172C1164.52 150.234 1167.13 149.505 1170.07 148.984C1173.04 148.438 1176.41 148.164 1180.19 148.164C1182.92 148.164 1185.67 148.32 1188.43 148.633C1191.19 148.919 1193.87 149.336 1196.48 149.883C1199.11 150.43 1201.63 151.094 1204.05 151.875C1206.48 152.63 1208.73 153.477 1210.81 154.414L1205.38 164.414C1203.66 163.659 1201.82 162.969 1199.84 162.344C1197.86 161.693 1195.79 161.133 1193.62 160.664C1191.46 160.195 1189.22 159.831 1186.91 159.57C1184.61 159.284 1182.27 159.141 1179.88 159.141C1176.46 159.141 1173.65 159.388 1171.44 159.883C1169.25 160.378 1167.51 161.016 1166.2 161.797C1164.9 162.552 1163.99 163.411 1163.47 164.375C1162.97 165.312 1162.73 166.25 1162.73 167.188C1162.73 169.01 1163.55 170.508 1165.19 171.68C1166.83 172.826 1169.33 173.398 1172.69 173.398C1174.04 173.398 1175.59 173.307 1177.34 173.125C1179.11 172.917 1180.96 172.695 1182.88 172.461C1184.84 172.227 1186.82 172.018 1188.82 171.836C1190.85 171.628 1192.82 171.523 1194.72 171.523C1198.31 171.523 1201.49 171.927 1204.25 172.734C1207.04 173.542 1209.37 174.701 1211.24 176.211C1213.12 177.695 1214.54 179.505 1215.5 181.641C1216.46 183.75 1216.95 186.12 1216.95 188.75C1216.95 192.266 1216.12 195.404 1214.48 198.164C1212.87 200.898 1210.55 203.216 1207.53 205.117C1204.54 206.992 1200.92 208.424 1196.67 209.414C1192.43 210.378 1187.7 210.859 1182.49 210.859C1179.05 210.859 1175.7 210.638 1172.41 210.195C1169.13 209.779 1165.98 209.18 1162.96 208.398C1159.97 207.591 1157.1 206.641 1154.37 205.547C1151.66 204.427 1149.15 203.203 1146.83 201.875L1153.43 191.836Z" fill="#088484"/>
<path d="M455.414 244.41V239.127V233.845H444.85V224.788H429.76V229.64H425.233V219.505H420.705V212.713H405.615V221.77H401.088V229.64V231.904V239.02H380.069V244.302H371.014V239.02H355.169V245.057H358.187V249.585H460.48V244.302L455.414 244.41Z" fill="#A8E7F4"/>
<path d="M434.395 249.37V244.41H439.676V239.235V233.952H429.113V239.235H423.831V243.655V244.41V249.37H397.53V244.41H402.812V239.235H408.094V233.952H402.812V229.209V223.71H410.358V218.32V212.821H405.076V218.32H399.794V223.71H393.758V229.209H389.985V233.952H381.685V239.235H392.249V243.655H386.967V249.37H365.948V243.655H360.666V239.235H355.385V243.655H350.103V249.37H344.821V254.976H460.696V249.37H434.395Z" fill="#2FBABB"/>
<path d="M376.511 239.235H381.793V244.518H376.511V239.235Z" fill="#2FBABB"/>
<path d="M1337.89 139.401V133.687H1320.97V129.159H1316.44V124.738H1310.84V119.024H1299.52V124.738H1292.73V135.951H1296.18V139.401V145.007H1342.42V139.401H1337.89Z" fill="#A8E7F4"/>
<path d="M1294.99 145.007H1342.42V139.401H1306.31V133.687H1296.18V129.159H1300.6V119.024H1294.99V124.738H1290.46V133.687V135.951V139.401H1294.99V145.007Z" fill="#2FBABB"/>
<path d="M214.395 141.018H260.637V146.624H214.395V141.018Z" fill="#A8E7F4"/>
<path d="M239.187 135.412V130.884H234.659V126.356H229.054V120.749H217.736V126.356H210.946V137.676H214.395V141.018H256.11V135.412H239.187Z" fill="#A8E7F4"/>
<path d="M224.527 140.479V135.412H214.395V130.884H218.922V120.749H213.209V126.356H208.682V135.412V137.676V141.018H213.209V146.732H260.637V140.479H224.527Z" fill="#2FBABB"/>
<path d="M201.783 227.484V221.77H190.573V227.484V228.562V234.168H206.311V227.484H201.783Z" fill="#A8E7F4"/>
<path d="M190.573 227.484H184.86V233.09V234.168V238.696H206.311V233.09H190.573V227.484Z" fill="#2FBABB"/>
<path d="M1421.54 147.595V153.201H1417.12V159.993H1432.86V153.201V147.595H1421.54Z" fill="#A8E7F4"/>
<path d="M1432.86 153.201V158.915H1417.12V164.521H1438.57V159.993V158.915V153.201H1432.86Z" fill="#2FBABB"/>
<path d="M131.396 192.66V188.024H126.115V183.496H120.941V178.213H111.132V163.12H101.323V157.837H96.0414V152.662H88.4961V157.837H87.7415V163.12H76.5313V183.496H60.6862V172.176H46.4579V183.496H35.8944V173.685H30.6127V168.402H25.331V163.12H14.7675V168.402V173.685H7.33V183.496H5.06641V188.779H5.82094V192.66V193.199V198.482H141.205V192.66H131.396Z" fill="#A8E7F4"/>
<path d="M121.695 198.266V192.66H116.414V198.266H105.85V192.66H101.323V189.534H96.0412V183.927H101.323V178.213H96.0412V183.927H90.7595V189.534V192.66V194.493V198.266H55.4043V193.199H50.8771V188.024H46.4577V183.28H50.8771V177.674H55.4043V172.176H45.7032V177.674H41.176V182.741V183.28V188.024V193.199H45.7032V198.266H20.8036V193.199H15.5219V188.024H10.2402V183.065V177.674V174.332H14.7674V168.402H5.82079V173.793H0.539062V177.674V183.065V188.024V188.563V193.199H5.82079V198.482V203.765H146.487V198.266H121.695Z" fill="#2FBABB"/>
<path d="M85.4778 152.662V157.837H76.5312V163.12H71.2495V168.618V173.685H65.9678V178.968V184.251H71.2495V189.534H76.5312V184.251V178.968V174.116H81.8129V168.618H85.4778V163.766H90.7595V158.699V157.837V152.662H85.4778Z" fill="#2FBABB"/>
<path d="M1243.47 237.941V233.413H1248.64V229.101H1253.71V223.926H1263.19V209.371H1272.68V204.304H1277.75V199.129H1285.08V204.304H1285.83V209.371H1296.72V229.101H1312.02V218.104H1325.93V229.101H1336.06V219.613H1341.23V214.438H1346.3V209.371H1356.54V214.438V219.613H1363.76V229.101H1366.03V234.168H1365.27V237.941V238.588V243.655H1233.98V237.941H1243.47Z" fill="#A8E7F4"/>
<path d="M1252.95 243.332V237.941H1258.13V243.332H1268.26V237.941H1272.68V235.03H1277.75V229.424H1272.68V223.926H1277.75V229.424H1282.92V235.03V237.941V239.666V243.332H1317.2V238.588H1321.51V233.413H1325.93V228.885H1321.51V223.495H1317.2V218.104H1326.57V223.495H1330.99V228.346V228.885V233.413V238.588H1326.57V243.332H1350.72V238.588H1355.79V233.413H1360.85V228.67V223.495V220.152H1356.54V214.438H1365.27V219.721H1370.34V223.495V228.67V233.413V233.952V238.588H1365.27V243.655V248.723H1228.92V243.332H1252.95Z" fill="#2FBABB"/>
<path d="M1287.99 199.129V204.304H1296.72V209.371H1301.78V214.654V219.613H1306.96V224.68V229.748H1301.78V234.923H1296.72V229.748V224.68V220.045H1291.65V214.654H1287.99V210.018H1282.92V205.059V204.304V199.129H1287.99Z" fill="#2FBABB"/>
<defs>
<clipPath id="clip0_1_2">
<rect width="1169" height="181" fill="white" transform="translate(114 331)"/>
</clipPath>
</defs>
</svg>
