<svg xmlns="http://www.w3.org/2000/svg" viewBox="0 0 680 100">
    <!-- A -->
    <path d="M0,100 L35,0 L70,100 L55,100 L45,70 L25,70 L15,100 L0,100 Z M35,25 L28,60 L42,60 L35,25 Z" fill="#088484"/>
    <!-- R -->
    <path d="M80,0 L130,0 Q160,0 160,30 Q160,50 140,55 L165,100 H145 L120,60 H100 V100 H80 V0 Z M100,15 V45 H130 Q140,45 140,30 Q140,15 130,15 Z" fill="#088484"/>
    <!-- B -->
    <path d="M180,0 H230 Q255,0 255,25 Q255,40 240,45 Q260,50 260,75 Q260,100 235,100 H180 V0 Z M200,15 V42 H230 Q235,42 235,30 Q235,15 230,15 H200 Z M200,57 V85 H230 Q240,85 240,71 Q240,57 230,57 H200 Z" fill="#088484"/>
    <!-- I -->
    <path d="M280,0 H300 V100 H280 V0 Z" fill="#088484"/>
    <!-- T -->
    <path d="M310,0 H390 V20 H360 V100 H340 V20 H310 V0 Z" fill="#088484"/>
    <!-- R -->
    <path d="M400,0 L450,0 Q480,0 480,30 Q480,50 460,55 L485,100 H465 L440,60 H420 V100 H400 V0 Z M420,15 V45 H450 Q460,45 460,30 Q460,15 450,15 Z" fill="#088484"/>
    <!-- U -->
    <path d="M500,0 V75 Q500,100 530,100 Q560,100 560,75 V0 H540 V75 Q540,85 530,85 Q520,85 520,75 V0 Z" fill="#088484"/>
    <!-- M -->
    <path d="M580,0 H600 L630,50 L660,0 H680 V100 H660 V30 L635,70 L610,30 V100 H590 V0 Z" fill="#088484"/>
</svg>